<?xml version="1.0" standalone="no"?><!DOCTYPE svg PUBLIC "-//W3C//DTD SVG 1.1//EN" "http://www.w3.org/Graphics/SVG/1.1/DTD/svg11.dtd"><svg t="1638598581183" class="icon" viewBox="0 0 1710 1024" version="1.1" xmlns="http://www.w3.org/2000/svg" p-id="3103" xmlns:xlink="http://www.w3.org/1999/xlink" width="333.984375" height="200"><defs><style type="text/css"></style></defs><path d="M0 864.26815l2.695896 1.347949a822.023682 822.023682 0 0 0 321.485622 62.679586A805.848305 805.848305 0 0 0 741.371454 822.706417c7.189057 5.391792 14.378113 10.783585 22.465801 15.726062l-58.186426 181.972993-1.12329 3.594528h487.957212v-2.695896a83.572782 83.572782 0 0 0-2.471239-19.769906h213.200458v-2.695896a83.123466 83.123466 0 0 0-83.123466-83.123466h-149.846897l9.884953-17.747983a189.16205 189.16205 0 0 0 114.35093-166.246932 89.863207 89.863207 0 0 0 5.391792-7.413715l78.18099-121.989303 67.397405-9.210978 50.098738 11.682217 63.802876-26.509646v-47.178184l8.312347-1.12329 49.874079 11.457559 64.027535-26.284988v-102.668713l-64.701509-13.254823-75.709751 31.002806-48.975448-6.290425 49.424764-77.057699h40.213785l50.772712-62.454929 19.095931 30.104174 42.460365-8.98632V212.984561L1709.647504 179.735175V121.32409l-135.9181-61.10698-20.668537-22.465802a122.213961 122.213961 0 0 0-60.657665-32.350754A325.304808 325.304808 0 0 0 1433.093486 0.008762a307.332166 307.332166 0 0 0-95.254999 14.378113l-22.465802-9.210979h-46.728867v2.471238A189.836024 189.836024 0 0 0 1267.071212 44.940365l-129.852333 44.931603-227.803229 35.945283a386.636446 386.636446 0 0 0-218.59225 116.148194 391.578922 391.578922 0 0 0-50.99737 469.310596 997.481592 997.481592 0 0 0-190.509997-18.646615c-161.079798 0-310.702037 41.561733-421.233781 117.271484z" fill="currentColor" p-id="3104"></path></svg>